<?xml version="1.0" encoding="UTF-8" standalone="no"?>
<!DOCTYPE svg PUBLIC "-//W3C//DTD SVG 1.1//EN"
 "http://www.w3.org/Graphics/SVG/1.1/DTD/svg11.dtd">
<!-- Generated by graphviz version 2.47.0 (20210316.0004)
 -->
<!-- Title: dbml Pages: 1 -->
<svg width="1670pt" height="3317pt"
 viewBox="0.00 0.00 1669.58 3317.07" xmlns="http://www.w3.org/2000/svg" xmlns:xlink="http://www.w3.org/1999/xlink">
<g id="graph0" class="graph" transform="scale(1 1) rotate(0) translate(4 3313.07)">
<title>dbml</title>
<!-- Asset -->
<g id="Asset" class="node">
<title>Asset</title>
<ellipse fill="none" stroke="black" stroke-width="0" cx="295.57" cy="-1751.53" rx="263.09" ry="214.92"/>
<polygon fill="#1d71b8" stroke="transparent" points="111.57,-1841.53 111.57,-1901.53 479.57,-1901.53 479.57,-1841.53 111.57,-1841.53"/>
<polygon fill="none" stroke="#29235c" points="111.57,-1841.53 111.57,-1901.53 479.57,-1901.53 479.57,-1841.53 111.57,-1841.53"/>
<text text-anchor="start" x="193.31" y="-1862.73" font-family="Helvetica,sans-Serif" font-weight="bold" font-size="32.00" fill="#ffffff"> &#160;&#160;&#160;&#160;&#160;&#160;Asset &#160;&#160;&#160;&#160;&#160;&#160;</text>
<polygon fill="#e7e2dd" stroke="transparent" points="111.57,-1781.53 111.57,-1841.53 479.57,-1841.53 479.57,-1781.53 111.57,-1781.53"/>
<polygon fill="none" stroke="#29235c" points="111.57,-1781.53 111.57,-1841.53 479.57,-1841.53 479.57,-1781.53 111.57,-1781.53"/>
<text text-anchor="start" x="122.57" y="-1802.73" font-family="Helvetica,sans-Serif" font-weight="bold" font-size="32.00" fill="#29235c">id</text>
<text text-anchor="start" x="147.46" y="-1802.73" font-family="Helvetica,sans-Serif" font-size="32.00" fill="#29235c"> &#160;&#160;&#160;</text>
<text text-anchor="start" x="326.35" y="-1802.73" font-family="Helvetica,sans-Serif" font-style="italic" font-size="32.00" fill="#29235c">INTEGER</text>
<polygon fill="#e7e2dd" stroke="transparent" points="111.57,-1721.53 111.57,-1781.53 479.57,-1781.53 479.57,-1721.53 111.57,-1721.53"/>
<polygon fill="none" stroke="#29235c" points="111.57,-1721.53 111.57,-1781.53 479.57,-1781.53 479.57,-1721.53 111.57,-1721.53"/>
<text text-anchor="start" x="122.57" y="-1741.73" font-family="Helvetica,sans-Serif" font-size="32.00" fill="#29235c">name &#160;&#160;&#160;</text>
<text text-anchor="start" x="312.15" y="-1742.73" font-family="Helvetica,sans-Serif" font-style="italic" font-size="32.00" fill="#29235c">VARCHAR</text>
<polygon fill="#e7e2dd" stroke="transparent" points="111.57,-1661.53 111.57,-1721.53 479.57,-1721.53 479.57,-1661.53 111.57,-1661.53"/>
<polygon fill="none" stroke="#29235c" points="111.57,-1661.53 111.57,-1721.53 479.57,-1721.53 479.57,-1661.53 111.57,-1661.53"/>
<text text-anchor="start" x="122.44" y="-1681.73" font-family="Helvetica,sans-Serif" font-size="32.00" fill="#29235c">description &#160;&#160;&#160;</text>
<text text-anchor="start" x="312.36" y="-1682.73" font-family="Helvetica,sans-Serif" font-style="italic" font-size="32.00" fill="#29235c">VARCHAR</text>
<polygon fill="#e7e2dd" stroke="transparent" points="111.57,-1601.53 111.57,-1661.53 479.57,-1661.53 479.57,-1601.53 111.57,-1601.53"/>
<polygon fill="none" stroke="#29235c" points="111.57,-1601.53 111.57,-1661.53 479.57,-1661.53 479.57,-1601.53 111.57,-1601.53"/>
<text text-anchor="start" x="122.57" y="-1621.73" font-family="Helvetica,sans-Serif" font-size="32.00" fill="#29235c">owner_id &#160;&#160;&#160;</text>
<text text-anchor="start" x="326.35" y="-1622.73" font-family="Helvetica,sans-Serif" font-style="italic" font-size="32.00" fill="#29235c">INTEGER</text>
<polygon fill="none" stroke="#29235c" stroke-width="2" points="110.57,-1600.53 110.57,-1902.53 480.57,-1902.53 480.57,-1600.53 110.57,-1600.53"/>
</g>
<!-- User -->
<g id="User" class="node">
<title>User</title>
<ellipse fill="none" stroke="black" stroke-width="0" cx="890.89" cy="-1273.53" rx="263.5" ry="257.27"/>
<polygon fill="#1d71b8" stroke="transparent" points="706.89,-1393.53 706.89,-1453.53 1075.89,-1453.53 1075.89,-1393.53 706.89,-1393.53"/>
<polygon fill="none" stroke="#29235c" points="706.89,-1393.53 706.89,-1453.53 1075.89,-1453.53 1075.89,-1393.53 706.89,-1393.53"/>
<text text-anchor="start" x="795.37" y="-1414.73" font-family="Helvetica,sans-Serif" font-weight="bold" font-size="32.00" fill="#ffffff"> &#160;&#160;&#160;&#160;&#160;&#160;User &#160;&#160;&#160;&#160;&#160;&#160;</text>
<polygon fill="#e7e2dd" stroke="transparent" points="706.89,-1333.53 706.89,-1393.53 1075.89,-1393.53 1075.89,-1333.53 706.89,-1333.53"/>
<polygon fill="none" stroke="#29235c" points="706.89,-1333.53 706.89,-1393.53 1075.89,-1393.53 1075.89,-1333.53 706.89,-1333.53"/>
<text text-anchor="start" x="717.89" y="-1354.73" font-family="Helvetica,sans-Serif" font-weight="bold" font-size="32.00" fill="#29235c">id</text>
<text text-anchor="start" x="742.78" y="-1354.73" font-family="Helvetica,sans-Serif" font-size="32.00" fill="#29235c"> &#160;&#160;&#160;</text>
<text text-anchor="start" x="922.67" y="-1354.73" font-family="Helvetica,sans-Serif" font-style="italic" font-size="32.00" fill="#29235c">INTEGER</text>
<polygon fill="#e7e2dd" stroke="transparent" points="706.89,-1273.53 706.89,-1333.53 1075.89,-1333.53 1075.89,-1273.53 706.89,-1273.53"/>
<polygon fill="none" stroke="#29235c" points="706.89,-1273.53 706.89,-1333.53 1075.89,-1333.53 1075.89,-1273.53 706.89,-1273.53"/>
<text text-anchor="start" x="717.89" y="-1293.73" font-family="Helvetica,sans-Serif" font-size="32.00" fill="#29235c">name &#160;&#160;&#160;</text>
<text text-anchor="start" x="908.47" y="-1294.73" font-family="Helvetica,sans-Serif" font-style="italic" font-size="32.00" fill="#29235c">VARCHAR</text>
<polygon fill="#e7e2dd" stroke="transparent" points="706.89,-1213.53 706.89,-1273.53 1075.89,-1273.53 1075.89,-1213.53 706.89,-1213.53"/>
<polygon fill="none" stroke="#29235c" points="706.89,-1213.53 706.89,-1273.53 1075.89,-1273.53 1075.89,-1213.53 706.89,-1213.53"/>
<text text-anchor="start" x="717.89" y="-1233.73" font-family="Helvetica,sans-Serif" font-size="32.00" fill="#29235c">email &#160;&#160;&#160;</text>
<text text-anchor="start" x="908.47" y="-1234.73" font-family="Helvetica,sans-Serif" font-style="italic" font-size="32.00" fill="#29235c">VARCHAR</text>
<polygon fill="#e7e2dd" stroke="transparent" points="706.89,-1153.53 706.89,-1213.53 1075.89,-1213.53 1075.89,-1153.53 706.89,-1153.53"/>
<polygon fill="none" stroke="#29235c" points="706.89,-1153.53 706.89,-1213.53 1075.89,-1213.53 1075.89,-1153.53 706.89,-1153.53"/>
<text text-anchor="start" x="717.52" y="-1173.73" font-family="Helvetica,sans-Serif" font-size="32.00" fill="#29235c">created_at &#160;&#160;&#160;</text>
<text text-anchor="start" x="903.51" y="-1174.73" font-family="Helvetica,sans-Serif" font-style="italic" font-size="32.00" fill="#29235c">DATETIME</text>
<polygon fill="#e7e2dd" stroke="transparent" points="706.89,-1093.53 706.89,-1153.53 1075.89,-1153.53 1075.89,-1093.53 706.89,-1093.53"/>
<polygon fill="none" stroke="#29235c" points="706.89,-1093.53 706.89,-1153.53 1075.89,-1153.53 1075.89,-1093.53 706.89,-1093.53"/>
<text text-anchor="start" x="717.89" y="-1113.73" font-family="Helvetica,sans-Serif" font-size="32.00" fill="#29235c">profile_id &#160;&#160;&#160;</text>
<text text-anchor="start" x="922.67" y="-1114.73" font-family="Helvetica,sans-Serif" font-style="italic" font-size="32.00" fill="#29235c">INTEGER</text>
<polygon fill="none" stroke="#29235c" stroke-width="2" points="705.39,-1092.53 705.39,-1454.53 1076.39,-1454.53 1076.39,-1092.53 705.39,-1092.53"/>
</g>
<!-- Asset&#45;&gt;User -->
<!-- Asset&#45;&gt;User -->
<g id="edge2" class="edge">
<title>Asset:e&#45;&gt;User:w</title>
<path fill="none" stroke="#29235c" stroke-width="3" d="M480.57,-1631.53C548.04,-1631.53 547,-1578.55 591.14,-1527.53 646.96,-1463.02 619.44,-1371.42 695.54,-1364.01"/>
<polygon fill="#29235c" stroke="#29235c" stroke-width="3" points="696.06,-1367.49 705.89,-1363.53 695.74,-1360.5 696.06,-1367.49"/>
<text text-anchor="middle" x="712.11" y="-1373.13" font-family="Helvetica,sans-Serif" font-size="32.00" fill="#29235c">*</text>
<text text-anchor="middle" x="471.68" y="-1641.13" font-family="Helvetica,sans-Serif" font-size="32.00" fill="#29235c">1</text>
</g>
<!-- Profile -->
<g id="Profile" class="node">
<title>Profile</title>
<ellipse fill="none" stroke="black" stroke-width="0" cx="1426.11" cy="-1303.53" rx="235.43" ry="214.92"/>
<polygon fill="#1d71b8" stroke="transparent" points="1262.11,-1393.53 1262.11,-1453.53 1591.11,-1453.53 1591.11,-1393.53 1262.11,-1393.53"/>
<polygon fill="none" stroke="#29235c" points="1262.11,-1393.53 1262.11,-1453.53 1591.11,-1453.53 1591.11,-1393.53 1262.11,-1393.53"/>
<text text-anchor="start" x="1319.03" y="-1414.73" font-family="Helvetica,sans-Serif" font-weight="bold" font-size="32.00" fill="#ffffff"> &#160;&#160;&#160;&#160;&#160;&#160;Profile &#160;&#160;&#160;&#160;&#160;&#160;</text>
<polygon fill="#e7e2dd" stroke="transparent" points="1262.11,-1333.53 1262.11,-1393.53 1591.11,-1393.53 1591.11,-1333.53 1262.11,-1333.53"/>
<polygon fill="none" stroke="#29235c" points="1262.11,-1333.53 1262.11,-1393.53 1591.11,-1393.53 1591.11,-1333.53 1262.11,-1333.53"/>
<text text-anchor="start" x="1273.11" y="-1354.73" font-family="Helvetica,sans-Serif" font-weight="bold" font-size="32.00" fill="#29235c">id</text>
<text text-anchor="start" x="1298" y="-1354.73" font-family="Helvetica,sans-Serif" font-size="32.00" fill="#29235c"> &#160;&#160;&#160;</text>
<text text-anchor="start" x="1437.89" y="-1354.73" font-family="Helvetica,sans-Serif" font-style="italic" font-size="32.00" fill="#29235c">INTEGER</text>
<polygon fill="#e7e2dd" stroke="transparent" points="1262.11,-1273.53 1262.11,-1333.53 1591.11,-1333.53 1591.11,-1273.53 1262.11,-1273.53"/>
<polygon fill="none" stroke="#29235c" points="1262.11,-1273.53 1262.11,-1333.53 1591.11,-1333.53 1591.11,-1273.53 1262.11,-1273.53"/>
<text text-anchor="start" x="1273.11" y="-1293.73" font-family="Helvetica,sans-Serif" font-size="32.00" fill="#29235c">bio &#160;&#160;&#160;</text>
<text text-anchor="start" x="1423.68" y="-1294.73" font-family="Helvetica,sans-Serif" font-style="italic" font-size="32.00" fill="#29235c">VARCHAR</text>
<polygon fill="#e7e2dd" stroke="transparent" points="1262.11,-1213.53 1262.11,-1273.53 1591.11,-1273.53 1591.11,-1213.53 1262.11,-1213.53"/>
<polygon fill="none" stroke="#29235c" points="1262.11,-1213.53 1262.11,-1273.53 1591.11,-1273.53 1591.11,-1213.53 1262.11,-1213.53"/>
<text text-anchor="start" x="1272.95" y="-1233.73" font-family="Helvetica,sans-Serif" font-size="32.00" fill="#29235c">date_of_birth &#160;&#160;&#160;</text>
<text text-anchor="start" x="1494.94" y="-1234.73" font-family="Helvetica,sans-Serif" font-style="italic" font-size="32.00" fill="#29235c">DATE</text>
<polygon fill="#e7e2dd" stroke="transparent" points="1262.11,-1153.53 1262.11,-1213.53 1591.11,-1213.53 1591.11,-1153.53 1262.11,-1153.53"/>
<polygon fill="none" stroke="#29235c" points="1262.11,-1153.53 1262.11,-1213.53 1591.11,-1213.53 1591.11,-1153.53 1262.11,-1153.53"/>
<text text-anchor="start" x="1273.11" y="-1173.73" font-family="Helvetica,sans-Serif" font-size="32.00" fill="#29235c">user_id &#160;&#160;&#160;</text>
<text text-anchor="start" x="1437.89" y="-1174.73" font-family="Helvetica,sans-Serif" font-style="italic" font-size="32.00" fill="#29235c">INTEGER</text>
<polygon fill="none" stroke="#29235c" stroke-width="2" points="1260.61,-1152.53 1260.61,-1454.53 1591.61,-1454.53 1591.61,-1152.53 1260.61,-1152.53"/>
</g>
<!-- User&#45;&gt;Profile -->
<!-- User&#45;&gt;Profile -->
<g id="edge4" class="edge">
<title>User:e&#45;&gt;Profile:w</title>
<path fill="none" stroke="#29235c" stroke-width="3" d="M1076.89,-1123.53C1207.81,-1123.53 1130.96,-1351.04 1250.92,-1363.04"/>
<polygon fill="#29235c" stroke="#29235c" stroke-width="3" points="1250.95,-1366.55 1261.11,-1363.53 1251.29,-1359.56 1250.95,-1366.55"/>
<text text-anchor="middle" x="1254.89" y="-1373.13" font-family="Helvetica,sans-Serif" font-size="32.00" fill="#29235c">*</text>
<text text-anchor="middle" x="1068" y="-1133.13" font-family="Helvetica,sans-Serif" font-size="32.00" fill="#29235c">1</text>
</g>
<!-- AuditLog -->
<g id="AuditLog" class="node">
<title>AuditLog</title>
<ellipse fill="none" stroke="black" stroke-width="0" cx="295.57" cy="-1303.53" rx="261.76" ry="214.92"/>
<polygon fill="#1d71b8" stroke="transparent" points="112.57,-1393.53 112.57,-1453.53 478.57,-1453.53 478.57,-1393.53 112.57,-1393.53"/>
<polygon fill="none" stroke="#29235c" points="112.57,-1393.53 112.57,-1453.53 478.57,-1453.53 478.57,-1393.53 112.57,-1393.53"/>
<text text-anchor="start" x="170.18" y="-1414.73" font-family="Helvetica,sans-Serif" font-weight="bold" font-size="32.00" fill="#ffffff"> &#160;&#160;&#160;&#160;&#160;&#160;AuditLog &#160;&#160;&#160;&#160;&#160;&#160;</text>
<polygon fill="#e7e2dd" stroke="transparent" points="112.57,-1333.53 112.57,-1393.53 478.57,-1393.53 478.57,-1333.53 112.57,-1333.53"/>
<polygon fill="none" stroke="#29235c" points="112.57,-1333.53 112.57,-1393.53 478.57,-1393.53 478.57,-1333.53 112.57,-1333.53"/>
<text text-anchor="start" x="123.57" y="-1354.73" font-family="Helvetica,sans-Serif" font-weight="bold" font-size="32.00" fill="#29235c">id</text>
<text text-anchor="start" x="148.46" y="-1354.73" font-family="Helvetica,sans-Serif" font-size="32.00" fill="#29235c"> &#160;&#160;&#160;</text>
<text text-anchor="start" x="325.35" y="-1354.73" font-family="Helvetica,sans-Serif" font-style="italic" font-size="32.00" fill="#29235c">INTEGER</text>
<polygon fill="#e7e2dd" stroke="transparent" points="112.57,-1273.53 112.57,-1333.53 478.57,-1333.53 478.57,-1273.53 112.57,-1273.53"/>
<polygon fill="none" stroke="#29235c" points="112.57,-1273.53 112.57,-1333.53 478.57,-1333.53 478.57,-1273.53 112.57,-1273.53"/>
<text text-anchor="start" x="123.57" y="-1293.73" font-family="Helvetica,sans-Serif" font-size="32.00" fill="#29235c">action &#160;&#160;&#160;</text>
<text text-anchor="start" x="311.15" y="-1294.73" font-family="Helvetica,sans-Serif" font-style="italic" font-size="32.00" fill="#29235c">VARCHAR</text>
<polygon fill="#e7e2dd" stroke="transparent" points="112.57,-1213.53 112.57,-1273.53 478.57,-1273.53 478.57,-1213.53 112.57,-1213.53"/>
<polygon fill="none" stroke="#29235c" points="112.57,-1213.53 112.57,-1273.53 478.57,-1273.53 478.57,-1213.53 112.57,-1213.53"/>
<text text-anchor="start" x="123.57" y="-1233.73" font-family="Helvetica,sans-Serif" font-size="32.00" fill="#29235c">user_id &#160;&#160;&#160;</text>
<text text-anchor="start" x="325.35" y="-1234.73" font-family="Helvetica,sans-Serif" font-style="italic" font-size="32.00" fill="#29235c">INTEGER</text>
<polygon fill="#e7e2dd" stroke="transparent" points="112.57,-1153.53 112.57,-1213.53 478.57,-1213.53 478.57,-1153.53 112.57,-1153.53"/>
<polygon fill="none" stroke="#29235c" points="112.57,-1153.53 112.57,-1213.53 478.57,-1213.53 478.57,-1153.53 112.57,-1153.53"/>
<text text-anchor="start" x="123.51" y="-1173.73" font-family="Helvetica,sans-Serif" font-size="32.00" fill="#29235c">timestamp &#160;&#160;&#160;</text>
<text text-anchor="start" x="306.19" y="-1174.73" font-family="Helvetica,sans-Serif" font-style="italic" font-size="32.00" fill="#29235c">DATETIME</text>
<polygon fill="none" stroke="#29235c" stroke-width="2" points="111.57,-1152.53 111.57,-1454.53 479.57,-1454.53 479.57,-1152.53 111.57,-1152.53"/>
</g>
<!-- AuditLog&#45;&gt;User -->
<!-- AuditLog&#45;&gt;User -->
<g id="edge6" class="edge">
<title>AuditLog:e&#45;&gt;User:w</title>
<path fill="none" stroke="#29235c" stroke-width="3" d="M479.57,-1243.53C589.98,-1243.53 592.02,-1356.38 695.86,-1363.21"/>
<polygon fill="#29235c" stroke="#29235c" stroke-width="3" points="695.78,-1366.71 705.89,-1363.53 696.01,-1359.71 695.78,-1366.71"/>
<text text-anchor="middle" x="712.11" y="-1334.73" font-family="Helvetica,sans-Serif" font-size="32.00" fill="#29235c">*</text>
<text text-anchor="middle" x="470.68" y="-1253.13" font-family="Helvetica,sans-Serif" font-size="32.00" fill="#29235c">1</text>
</g>
<!-- Configuration -->
<g id="Configuration" class="node">
<title>Configuration</title>
<ellipse fill="none" stroke="black" stroke-width="0" cx="295.57" cy="-3136.53" rx="240.33" ry="172.57"/>
<polygon fill="#1d71b8" stroke="transparent" points="127.57,-3196.53 127.57,-3256.53 463.57,-3256.53 463.57,-3196.53 127.57,-3196.53"/>
<polygon fill="none" stroke="#29235c" points="127.57,-3196.53 127.57,-3256.53 463.57,-3256.53 463.57,-3196.53 127.57,-3196.53"/>
<text text-anchor="start" x="138.19" y="-3217.73" font-family="Helvetica,sans-Serif" font-weight="bold" font-size="32.00" fill="#ffffff"> &#160;&#160;&#160;&#160;&#160;&#160;Configuration &#160;&#160;&#160;&#160;&#160;&#160;</text>
<polygon fill="#e7e2dd" stroke="transparent" points="127.57,-3136.53 127.57,-3196.53 463.57,-3196.53 463.57,-3136.53 127.57,-3136.53"/>
<polygon fill="none" stroke="#29235c" points="127.57,-3136.53 127.57,-3196.53 463.57,-3196.53 463.57,-3136.53 127.57,-3136.53"/>
<text text-anchor="start" x="138.57" y="-3157.73" font-family="Helvetica,sans-Serif" font-weight="bold" font-size="32.00" fill="#29235c">id</text>
<text text-anchor="start" x="163.46" y="-3157.73" font-family="Helvetica,sans-Serif" font-size="32.00" fill="#29235c"> &#160;&#160;&#160;</text>
<text text-anchor="start" x="310.35" y="-3157.73" font-family="Helvetica,sans-Serif" font-style="italic" font-size="32.00" fill="#29235c">INTEGER</text>
<polygon fill="#e7e2dd" stroke="transparent" points="127.57,-3076.53 127.57,-3136.53 463.57,-3136.53 463.57,-3076.53 127.57,-3076.53"/>
<polygon fill="none" stroke="#29235c" points="127.57,-3076.53 127.57,-3136.53 463.57,-3136.53 463.57,-3076.53 127.57,-3076.53"/>
<text text-anchor="start" x="138.57" y="-3096.73" font-family="Helvetica,sans-Serif" font-size="32.00" fill="#29235c">key &#160;&#160;&#160;</text>
<text text-anchor="start" x="296.15" y="-3097.73" font-family="Helvetica,sans-Serif" font-style="italic" font-size="32.00" fill="#29235c">VARCHAR</text>
<polygon fill="#e7e2dd" stroke="transparent" points="127.57,-3016.53 127.57,-3076.53 463.57,-3076.53 463.57,-3016.53 127.57,-3016.53"/>
<polygon fill="none" stroke="#29235c" points="127.57,-3016.53 127.57,-3076.53 463.57,-3076.53 463.57,-3016.53 127.57,-3016.53"/>
<text text-anchor="start" x="138.57" y="-3036.73" font-family="Helvetica,sans-Serif" font-size="32.00" fill="#29235c">value &#160;&#160;&#160;</text>
<text text-anchor="start" x="296.15" y="-3037.73" font-family="Helvetica,sans-Serif" font-style="italic" font-size="32.00" fill="#29235c">VARCHAR</text>
<polygon fill="none" stroke="#29235c" stroke-width="2" points="126.57,-3015.53 126.57,-3257.53 464.57,-3257.53 464.57,-3015.53 126.57,-3015.53"/>
</g>
<!-- Department -->
<g id="Department" class="node">
<title>Department</title>
<ellipse fill="none" stroke="black" stroke-width="0" cx="295.57" cy="-898.53" rx="224.31" ry="172.57"/>
<polygon fill="#1d71b8" stroke="transparent" points="139.57,-958.53 139.57,-1018.53 452.57,-1018.53 452.57,-958.53 139.57,-958.53"/>
<polygon fill="none" stroke="#29235c" points="139.57,-958.53 139.57,-1018.53 452.57,-1018.53 452.57,-958.53 139.57,-958.53"/>
<text text-anchor="start" x="150.25" y="-979.73" font-family="Helvetica,sans-Serif" font-weight="bold" font-size="32.00" fill="#ffffff"> &#160;&#160;&#160;&#160;&#160;&#160;Department &#160;&#160;&#160;&#160;&#160;&#160;</text>
<polygon fill="#e7e2dd" stroke="transparent" points="139.57,-898.53 139.57,-958.53 452.57,-958.53 452.57,-898.53 139.57,-898.53"/>
<polygon fill="none" stroke="#29235c" points="139.57,-898.53 139.57,-958.53 452.57,-958.53 452.57,-898.53 139.57,-898.53"/>
<text text-anchor="start" x="150.57" y="-919.73" font-family="Helvetica,sans-Serif" font-weight="bold" font-size="32.00" fill="#29235c">id</text>
<text text-anchor="start" x="175.46" y="-919.73" font-family="Helvetica,sans-Serif" font-size="32.00" fill="#29235c"> &#160;&#160;&#160;</text>
<text text-anchor="start" x="299.35" y="-919.73" font-family="Helvetica,sans-Serif" font-style="italic" font-size="32.00" fill="#29235c">INTEGER</text>
<polygon fill="#e7e2dd" stroke="transparent" points="139.57,-838.53 139.57,-898.53 452.57,-898.53 452.57,-838.53 139.57,-838.53"/>
<polygon fill="none" stroke="#29235c" points="139.57,-838.53 139.57,-898.53 452.57,-898.53 452.57,-838.53 139.57,-838.53"/>
<text text-anchor="start" x="150.57" y="-858.73" font-family="Helvetica,sans-Serif" font-size="32.00" fill="#29235c">name &#160;&#160;&#160;</text>
<text text-anchor="start" x="285.15" y="-859.73" font-family="Helvetica,sans-Serif" font-style="italic" font-size="32.00" fill="#29235c">VARCHAR</text>
<polygon fill="#e7e2dd" stroke="transparent" points="139.57,-778.53 139.57,-838.53 452.57,-838.53 452.57,-778.53 139.57,-778.53"/>
<polygon fill="none" stroke="#29235c" points="139.57,-778.53 139.57,-838.53 452.57,-838.53 452.57,-778.53 139.57,-778.53"/>
<text text-anchor="start" x="150.37" y="-798.73" font-family="Helvetica,sans-Serif" font-size="32.00" fill="#29235c">head_id &#160;&#160;&#160;</text>
<text text-anchor="start" x="299.46" y="-799.73" font-family="Helvetica,sans-Serif" font-style="italic" font-size="32.00" fill="#29235c">INTEGER</text>
<polygon fill="none" stroke="#29235c" stroke-width="2" points="138.07,-777.53 138.07,-1019.53 453.07,-1019.53 453.07,-777.53 138.07,-777.53"/>
</g>
<!-- Department&#45;&gt;User -->
<!-- Department&#45;&gt;User -->
<g id="edge8" class="edge">
<title>Department:e&#45;&gt;User:w</title>
<path fill="none" stroke="#29235c" stroke-width="3" d="M453.57,-808.53C588.65,-808.53 535.22,-956.58 591.14,-1079.53 646.02,-1200.19 573.76,-1355.12 695.56,-1363.2"/>
<polygon fill="#29235c" stroke="#29235c" stroke-width="3" points="695.79,-1366.71 705.89,-1363.53 696.01,-1359.72 695.79,-1366.71"/>
<text text-anchor="middle" x="699.67" y="-1373.13" font-family="Helvetica,sans-Serif" font-size="32.00" fill="#29235c">*</text>
<text text-anchor="middle" x="444.68" y="-818.13" font-family="Helvetica,sans-Serif" font-size="32.00" fill="#29235c">1</text>
</g>
<!-- Profile&#45;&gt;User -->
<!-- Profile&#45;&gt;User -->
<g id="edge10" class="edge">
<title>Profile:e&#45;&gt;User:w</title>
<path fill="none" stroke="#29235c" stroke-width="3" d="M1592.11,-1183.53C1634.32,-1183.53 1621.11,-1118.26 1591.11,-1088.57 1464.59,-963.38 1321.5,-967.93 1190.64,-1088.57 1118.13,-1155.42 1227.15,-1464.07 1154.64,-1530.92 1008.33,-1665.81 848.03,-1671.21 706.89,-1530.92 656.71,-1481.03 633.78,-1374.61 695.68,-1364.34"/>
<polygon fill="#29235c" stroke="#29235c" stroke-width="3" points="696.2,-1367.81 705.89,-1363.53 695.65,-1360.83 696.2,-1367.81"/>
<text text-anchor="middle" x="699.67" y="-1334.73" font-family="Helvetica,sans-Serif" font-size="32.00" fill="#29235c">*</text>
<text text-anchor="middle" x="1583.22" y="-1193.13" font-family="Helvetica,sans-Serif" font-size="32.00" fill="#29235c">1</text>
</g>
<!-- Project -->
<g id="Project" class="node">
<title>Project</title>
<ellipse fill="none" stroke="black" stroke-width="0" cx="295.57" cy="-2731.53" rx="263.09" ry="214.92"/>
<polygon fill="#1d71b8" stroke="transparent" points="111.57,-2821.53 111.57,-2881.53 479.57,-2881.53 479.57,-2821.53 111.57,-2821.53"/>
<polygon fill="none" stroke="#29235c" points="111.57,-2821.53 111.57,-2881.53 479.57,-2881.53 479.57,-2821.53 111.57,-2821.53"/>
<text text-anchor="start" x="183.54" y="-2842.73" font-family="Helvetica,sans-Serif" font-weight="bold" font-size="32.00" fill="#ffffff"> &#160;&#160;&#160;&#160;&#160;&#160;Project &#160;&#160;&#160;&#160;&#160;&#160;</text>
<polygon fill="#e7e2dd" stroke="transparent" points="111.57,-2761.53 111.57,-2821.53 479.57,-2821.53 479.57,-2761.53 111.57,-2761.53"/>
<polygon fill="none" stroke="#29235c" points="111.57,-2761.53 111.57,-2821.53 479.57,-2821.53 479.57,-2761.53 111.57,-2761.53"/>
<text text-anchor="start" x="122.57" y="-2782.73" font-family="Helvetica,sans-Serif" font-weight="bold" font-size="32.00" fill="#29235c">id</text>
<text text-anchor="start" x="147.46" y="-2782.73" font-family="Helvetica,sans-Serif" font-size="32.00" fill="#29235c"> &#160;&#160;&#160;</text>
<text text-anchor="start" x="326.35" y="-2782.73" font-family="Helvetica,sans-Serif" font-style="italic" font-size="32.00" fill="#29235c">INTEGER</text>
<polygon fill="#e7e2dd" stroke="transparent" points="111.57,-2701.53 111.57,-2761.53 479.57,-2761.53 479.57,-2701.53 111.57,-2701.53"/>
<polygon fill="none" stroke="#29235c" points="111.57,-2701.53 111.57,-2761.53 479.57,-2761.53 479.57,-2701.53 111.57,-2701.53"/>
<text text-anchor="start" x="122.57" y="-2721.73" font-family="Helvetica,sans-Serif" font-size="32.00" fill="#29235c">name &#160;&#160;&#160;</text>
<text text-anchor="start" x="312.15" y="-2722.73" font-family="Helvetica,sans-Serif" font-style="italic" font-size="32.00" fill="#29235c">VARCHAR</text>
<polygon fill="#e7e2dd" stroke="transparent" points="111.57,-2641.53 111.57,-2701.53 479.57,-2701.53 479.57,-2641.53 111.57,-2641.53"/>
<polygon fill="none" stroke="#29235c" points="111.57,-2641.53 111.57,-2701.53 479.57,-2701.53 479.57,-2641.53 111.57,-2641.53"/>
<text text-anchor="start" x="122.44" y="-2661.73" font-family="Helvetica,sans-Serif" font-size="32.00" fill="#29235c">description &#160;&#160;&#160;</text>
<text text-anchor="start" x="312.36" y="-2662.73" font-family="Helvetica,sans-Serif" font-style="italic" font-size="32.00" fill="#29235c">VARCHAR</text>
<polygon fill="#e7e2dd" stroke="transparent" points="111.57,-2581.53 111.57,-2641.53 479.57,-2641.53 479.57,-2581.53 111.57,-2581.53"/>
<polygon fill="none" stroke="#29235c" points="111.57,-2581.53 111.57,-2641.53 479.57,-2641.53 479.57,-2581.53 111.57,-2581.53"/>
<text text-anchor="start" x="122.57" y="-2601.73" font-family="Helvetica,sans-Serif" font-size="32.00" fill="#29235c">lead_id &#160;&#160;&#160;</text>
<text text-anchor="start" x="326.35" y="-2602.73" font-family="Helvetica,sans-Serif" font-style="italic" font-size="32.00" fill="#29235c">INTEGER</text>
<polygon fill="none" stroke="#29235c" stroke-width="2" points="110.57,-2580.53 110.57,-2882.53 480.57,-2882.53 480.57,-2580.53 110.57,-2580.53"/>
</g>
<!-- Project&#45;&gt;User -->
<!-- Project&#45;&gt;User -->
<g id="edge12" class="edge">
<title>Project:e&#45;&gt;User:w</title>
<path fill="none" stroke="#29235c" stroke-width="3" d="M480.57,-2611.53C548.04,-2611.53 561.31,-2568.05 591.14,-2507.53 646.08,-2396.08 581.85,-1419.15 695.85,-1365.8"/>
<polygon fill="#29235c" stroke="#29235c" stroke-width="3" points="696.91,-1369.15 705.89,-1363.53 695.37,-1362.32 696.91,-1369.15"/>
<text text-anchor="middle" x="712.11" y="-1373.13" font-family="Helvetica,sans-Serif" font-size="32.00" fill="#29235c">*</text>
<text text-anchor="middle" x="471.68" y="-2621.13" font-family="Helvetica,sans-Serif" font-size="32.00" fill="#29235c">1</text>
</g>
<!-- Role -->
<g id="Role" class="node">
<title>Role</title>
<ellipse fill="none" stroke="black" stroke-width="0" cx="890.89" cy="-535.53" rx="263.09" ry="172.57"/>
<polygon fill="#1d71b8" stroke="transparent" points="706.89,-595.53 706.89,-655.53 1074.89,-655.53 1074.89,-595.53 706.89,-595.53"/>
<polygon fill="none" stroke="#29235c" points="706.89,-595.53 706.89,-655.53 1074.89,-655.53 1074.89,-595.53 706.89,-595.53"/>
<text text-anchor="start" x="795.75" y="-616.73" font-family="Helvetica,sans-Serif" font-weight="bold" font-size="32.00" fill="#ffffff"> &#160;&#160;&#160;&#160;&#160;&#160;Role &#160;&#160;&#160;&#160;&#160;&#160;</text>
<polygon fill="#e7e2dd" stroke="transparent" points="706.89,-535.53 706.89,-595.53 1074.89,-595.53 1074.89,-535.53 706.89,-535.53"/>
<polygon fill="none" stroke="#29235c" points="706.89,-535.53 706.89,-595.53 1074.89,-595.53 1074.89,-535.53 706.89,-535.53"/>
<text text-anchor="start" x="717.89" y="-556.73" font-family="Helvetica,sans-Serif" font-weight="bold" font-size="32.00" fill="#29235c">id</text>
<text text-anchor="start" x="742.78" y="-556.73" font-family="Helvetica,sans-Serif" font-size="32.00" fill="#29235c"> &#160;&#160;&#160;</text>
<text text-anchor="start" x="921.67" y="-556.73" font-family="Helvetica,sans-Serif" font-style="italic" font-size="32.00" fill="#29235c">INTEGER</text>
<polygon fill="#e7e2dd" stroke="transparent" points="706.89,-475.53 706.89,-535.53 1074.89,-535.53 1074.89,-475.53 706.89,-475.53"/>
<polygon fill="none" stroke="#29235c" points="706.89,-475.53 706.89,-535.53 1074.89,-535.53 1074.89,-475.53 706.89,-475.53"/>
<text text-anchor="start" x="717.89" y="-495.73" font-family="Helvetica,sans-Serif" font-size="32.00" fill="#29235c">name &#160;&#160;&#160;</text>
<text text-anchor="start" x="907.47" y="-496.73" font-family="Helvetica,sans-Serif" font-style="italic" font-size="32.00" fill="#29235c">VARCHAR</text>
<polygon fill="#e7e2dd" stroke="transparent" points="706.89,-415.53 706.89,-475.53 1074.89,-475.53 1074.89,-415.53 706.89,-415.53"/>
<polygon fill="none" stroke="#29235c" points="706.89,-415.53 706.89,-475.53 1074.89,-475.53 1074.89,-415.53 706.89,-415.53"/>
<text text-anchor="start" x="717.76" y="-435.73" font-family="Helvetica,sans-Serif" font-size="32.00" fill="#29235c">description &#160;&#160;&#160;</text>
<text text-anchor="start" x="907.68" y="-436.73" font-family="Helvetica,sans-Serif" font-style="italic" font-size="32.00" fill="#29235c">VARCHAR</text>
<polygon fill="none" stroke="#29235c" stroke-width="2" points="705.89,-414.53 705.89,-656.53 1075.89,-656.53 1075.89,-414.53 705.89,-414.53"/>
</g>
<!-- Task -->
<g id="Task" class="node">
<title>Task</title>
<ellipse fill="none" stroke="black" stroke-width="0" cx="295.57" cy="-2241.53" rx="295.64" ry="257.27"/>
<polygon fill="#1d71b8" stroke="transparent" points="88.57,-2361.53 88.57,-2421.53 502.57,-2421.53 502.57,-2361.53 88.57,-2361.53"/>
<polygon fill="none" stroke="#29235c" points="88.57,-2361.53 88.57,-2421.53 502.57,-2421.53 502.57,-2361.53 88.57,-2361.53"/>
<text text-anchor="start" x="198.65" y="-2382.73" font-family="Helvetica,sans-Serif" font-weight="bold" font-size="32.00" fill="#ffffff"> &#160;&#160;&#160;&#160;&#160;&#160;Task &#160;&#160;&#160;&#160;&#160;&#160;</text>
<polygon fill="#e7e2dd" stroke="transparent" points="88.57,-2301.53 88.57,-2361.53 502.57,-2361.53 502.57,-2301.53 88.57,-2301.53"/>
<polygon fill="none" stroke="#29235c" points="88.57,-2301.53 88.57,-2361.53 502.57,-2361.53 502.57,-2301.53 88.57,-2301.53"/>
<text text-anchor="start" x="99.57" y="-2322.73" font-family="Helvetica,sans-Serif" font-weight="bold" font-size="32.00" fill="#29235c">id</text>
<text text-anchor="start" x="124.46" y="-2322.73" font-family="Helvetica,sans-Serif" font-size="32.00" fill="#29235c"> &#160;&#160;&#160;</text>
<text text-anchor="start" x="349.35" y="-2322.73" font-family="Helvetica,sans-Serif" font-style="italic" font-size="32.00" fill="#29235c">INTEGER</text>
<polygon fill="#e7e2dd" stroke="transparent" points="88.57,-2241.53 88.57,-2301.53 502.57,-2301.53 502.57,-2241.53 88.57,-2241.53"/>
<polygon fill="none" stroke="#29235c" points="88.57,-2241.53 88.57,-2301.53 502.57,-2301.53 502.57,-2241.53 88.57,-2241.53"/>
<text text-anchor="start" x="99.57" y="-2261.73" font-family="Helvetica,sans-Serif" font-size="32.00" fill="#29235c">title &#160;&#160;&#160;</text>
<text text-anchor="start" x="335.15" y="-2262.73" font-family="Helvetica,sans-Serif" font-style="italic" font-size="32.00" fill="#29235c">VARCHAR</text>
<polygon fill="#e7e2dd" stroke="transparent" points="88.57,-2181.53 88.57,-2241.53 502.57,-2241.53 502.57,-2181.53 88.57,-2181.53"/>
<polygon fill="none" stroke="#29235c" points="88.57,-2181.53 88.57,-2241.53 502.57,-2241.53 502.57,-2181.53 88.57,-2181.53"/>
<text text-anchor="start" x="99.57" y="-2201.73" font-family="Helvetica,sans-Serif" font-size="32.00" fill="#29235c">description &#160;&#160;&#160;</text>
<text text-anchor="start" x="335.15" y="-2202.73" font-family="Helvetica,sans-Serif" font-style="italic" font-size="32.00" fill="#29235c">VARCHAR</text>
<polygon fill="#e7e2dd" stroke="transparent" points="88.57,-2121.53 88.57,-2181.53 502.57,-2181.53 502.57,-2121.53 88.57,-2121.53"/>
<polygon fill="none" stroke="#29235c" points="88.57,-2121.53 88.57,-2181.53 502.57,-2181.53 502.57,-2121.53 88.57,-2121.53"/>
<text text-anchor="start" x="99.19" y="-2141.73" font-family="Helvetica,sans-Serif" font-size="32.00" fill="#29235c">assigned_to_id &#160;&#160;&#160;</text>
<text text-anchor="start" x="349.46" y="-2142.73" font-family="Helvetica,sans-Serif" font-style="italic" font-size="32.00" fill="#29235c">INTEGER</text>
<polygon fill="#e7e2dd" stroke="transparent" points="88.57,-2061.53 88.57,-2121.53 502.57,-2121.53 502.57,-2061.53 88.57,-2061.53"/>
<polygon fill="none" stroke="#29235c" points="88.57,-2061.53 88.57,-2121.53 502.57,-2121.53 502.57,-2061.53 88.57,-2061.53"/>
<text text-anchor="start" x="99.57" y="-2081.73" font-family="Helvetica,sans-Serif" font-size="32.00" fill="#29235c">status &#160;&#160;&#160;</text>
<text text-anchor="start" x="335.15" y="-2082.73" font-family="Helvetica,sans-Serif" font-style="italic" font-size="32.00" fill="#29235c">VARCHAR</text>
<polygon fill="none" stroke="#29235c" stroke-width="2" points="87.57,-2060.53 87.57,-2422.53 503.57,-2422.53 503.57,-2060.53 87.57,-2060.53"/>
</g>
<!-- Task&#45;&gt;User -->
<!-- Task&#45;&gt;User -->
<g id="edge14" class="edge">
<title>Task:e&#45;&gt;User:w</title>
<path fill="none" stroke="#29235c" stroke-width="3" d="M503.57,-2151.53C680.83,-2151.53 531.19,-1394.01 695.68,-1364.42"/>
<polygon fill="#29235c" stroke="#29235c" stroke-width="3" points="696.23,-1367.89 705.89,-1363.53 695.63,-1360.92 696.23,-1367.89"/>
<text text-anchor="middle" x="712.11" y="-1334.73" font-family="Helvetica,sans-Serif" font-size="32.00" fill="#29235c">*</text>
<text text-anchor="middle" x="494.68" y="-2161.13" font-family="Helvetica,sans-Serif" font-size="32.00" fill="#29235c">1</text>
</g>
<!-- Team -->
<g id="Team" class="node">
<title>Team</title>
<ellipse fill="none" stroke="black" stroke-width="0" cx="890.89" cy="-172.53" rx="263.09" ry="172.57"/>
<polygon fill="#1d71b8" stroke="transparent" points="706.89,-232.53 706.89,-292.53 1074.89,-292.53 1074.89,-232.53 706.89,-232.53"/>
<polygon fill="none" stroke="#29235c" points="706.89,-232.53 706.89,-292.53 1074.89,-292.53 1074.89,-232.53 706.89,-232.53"/>
<text text-anchor="start" x="787.75" y="-253.73" font-family="Helvetica,sans-Serif" font-weight="bold" font-size="32.00" fill="#ffffff"> &#160;&#160;&#160;&#160;&#160;&#160;Team &#160;&#160;&#160;&#160;&#160;&#160;</text>
<polygon fill="#e7e2dd" stroke="transparent" points="706.89,-172.53 706.89,-232.53 1074.89,-232.53 1074.89,-172.53 706.89,-172.53"/>
<polygon fill="none" stroke="#29235c" points="706.89,-172.53 706.89,-232.53 1074.89,-232.53 1074.89,-172.53 706.89,-172.53"/>
<text text-anchor="start" x="717.89" y="-193.73" font-family="Helvetica,sans-Serif" font-weight="bold" font-size="32.00" fill="#29235c">id</text>
<text text-anchor="start" x="742.78" y="-193.73" font-family="Helvetica,sans-Serif" font-size="32.00" fill="#29235c"> &#160;&#160;&#160;</text>
<text text-anchor="start" x="921.67" y="-193.73" font-family="Helvetica,sans-Serif" font-style="italic" font-size="32.00" fill="#29235c">INTEGER</text>
<polygon fill="#e7e2dd" stroke="transparent" points="706.89,-112.53 706.89,-172.53 1074.89,-172.53 1074.89,-112.53 706.89,-112.53"/>
<polygon fill="none" stroke="#29235c" points="706.89,-112.53 706.89,-172.53 1074.89,-172.53 1074.89,-112.53 706.89,-112.53"/>
<text text-anchor="start" x="717.89" y="-132.73" font-family="Helvetica,sans-Serif" font-size="32.00" fill="#29235c">name &#160;&#160;&#160;</text>
<text text-anchor="start" x="907.47" y="-133.73" font-family="Helvetica,sans-Serif" font-style="italic" font-size="32.00" fill="#29235c">VARCHAR</text>
<polygon fill="#e7e2dd" stroke="transparent" points="706.89,-52.53 706.89,-112.53 1074.89,-112.53 1074.89,-52.53 706.89,-52.53"/>
<polygon fill="none" stroke="#29235c" points="706.89,-52.53 706.89,-112.53 1074.89,-112.53 1074.89,-52.53 706.89,-52.53"/>
<text text-anchor="start" x="717.76" y="-72.73" font-family="Helvetica,sans-Serif" font-size="32.00" fill="#29235c">description &#160;&#160;&#160;</text>
<text text-anchor="start" x="907.68" y="-73.73" font-family="Helvetica,sans-Serif" font-style="italic" font-size="32.00" fill="#29235c">VARCHAR</text>
<polygon fill="none" stroke="#29235c" stroke-width="2" points="705.89,-51.53 705.89,-293.53 1075.89,-293.53 1075.89,-51.53 705.89,-51.53"/>
</g>
<!-- UserRole -->
<g id="UserRole" class="node">
<title>UserRole</title>
<ellipse fill="none" stroke="black" stroke-width="0" cx="295.57" cy="-535.53" rx="217.58" ry="172.57"/>
<polygon fill="#1d71b8" stroke="transparent" points="143.57,-595.53 143.57,-655.53 447.57,-655.53 447.57,-595.53 143.57,-595.53"/>
<polygon fill="none" stroke="#29235c" points="143.57,-595.53 143.57,-655.53 447.57,-655.53 447.57,-595.53 143.57,-595.53"/>
<text text-anchor="start" x="166.66" y="-616.73" font-family="Helvetica,sans-Serif" font-weight="bold" font-size="32.00" fill="#ffffff"> &#160;&#160;&#160;&#160;&#160;&#160;UserRole &#160;&#160;&#160;&#160;&#160;&#160;</text>
<polygon fill="#e7e2dd" stroke="transparent" points="143.57,-535.53 143.57,-595.53 447.57,-595.53 447.57,-535.53 143.57,-535.53"/>
<polygon fill="none" stroke="#29235c" points="143.57,-535.53 143.57,-595.53 447.57,-595.53 447.57,-535.53 143.57,-535.53"/>
<text text-anchor="start" x="154.57" y="-556.73" font-family="Helvetica,sans-Serif" font-weight="bold" font-size="32.00" fill="#29235c">id</text>
<text text-anchor="start" x="179.46" y="-556.73" font-family="Helvetica,sans-Serif" font-size="32.00" fill="#29235c"> &#160;&#160;&#160;</text>
<text text-anchor="start" x="294.35" y="-556.73" font-family="Helvetica,sans-Serif" font-style="italic" font-size="32.00" fill="#29235c">INTEGER</text>
<polygon fill="#e7e2dd" stroke="transparent" points="143.57,-475.53 143.57,-535.53 447.57,-535.53 447.57,-475.53 143.57,-475.53"/>
<polygon fill="none" stroke="#29235c" points="143.57,-475.53 143.57,-535.53 447.57,-535.53 447.57,-475.53 143.57,-475.53"/>
<text text-anchor="start" x="154.33" y="-495.73" font-family="Helvetica,sans-Serif" font-size="32.00" fill="#29235c">user_id &#160;&#160;&#160;</text>
<text text-anchor="start" x="294.46" y="-496.73" font-family="Helvetica,sans-Serif" font-style="italic" font-size="32.00" fill="#29235c">INTEGER</text>
<polygon fill="#e7e2dd" stroke="transparent" points="143.57,-415.53 143.57,-475.53 447.57,-475.53 447.57,-415.53 143.57,-415.53"/>
<polygon fill="none" stroke="#29235c" points="143.57,-415.53 143.57,-475.53 447.57,-475.53 447.57,-415.53 143.57,-415.53"/>
<text text-anchor="start" x="154.57" y="-435.73" font-family="Helvetica,sans-Serif" font-size="32.00" fill="#29235c">role_id &#160;&#160;&#160;</text>
<text text-anchor="start" x="294.35" y="-436.73" font-family="Helvetica,sans-Serif" font-style="italic" font-size="32.00" fill="#29235c">INTEGER</text>
<polygon fill="none" stroke="#29235c" stroke-width="2" points="142.57,-414.53 142.57,-656.53 448.57,-656.53 448.57,-414.53 142.57,-414.53"/>
</g>
<!-- UserRole&#45;&gt;User -->
<!-- UserRole&#45;&gt;User -->
<g id="edge18" class="edge">
<title>UserRole:e&#45;&gt;User:w</title>
<path fill="none" stroke="#29235c" stroke-width="3" d="M448.57,-505.53C561.75,-505.53 548.65,-611.64 591.14,-716.53 644.63,-848.57 563.99,-1338.77 695.61,-1362.63"/>
<polygon fill="#29235c" stroke="#29235c" stroke-width="3" points="695.62,-1366.15 705.89,-1363.53 696.24,-1359.17 695.62,-1366.15"/>
<text text-anchor="middle" x="699.67" y="-1373.13" font-family="Helvetica,sans-Serif" font-size="32.00" fill="#29235c">*</text>
<text text-anchor="middle" x="439.68" y="-515.13" font-family="Helvetica,sans-Serif" font-size="32.00" fill="#29235c">1</text>
</g>
<!-- UserRole&#45;&gt;Role -->
<!-- UserRole&#45;&gt;Role -->
<g id="edge16" class="edge">
<title>UserRole:e&#45;&gt;Role:w</title>
<path fill="none" stroke="#29235c" stroke-width="3" d="M448.57,-445.53C571.31,-445.53 579.34,-559.06 695.81,-565.27"/>
<polygon fill="#29235c" stroke="#29235c" stroke-width="3" points="695.8,-568.77 705.89,-565.53 695.99,-561.77 695.8,-568.77"/>
<text text-anchor="middle" x="712.11" y="-575.13" font-family="Helvetica,sans-Serif" font-size="32.00" fill="#29235c">*</text>
<text text-anchor="middle" x="439.68" y="-455.13" font-family="Helvetica,sans-Serif" font-size="32.00" fill="#29235c">1</text>
</g>
<!-- UserTeam -->
<g id="UserTeam" class="node">
<title>UserTeam</title>
<ellipse fill="none" stroke="black" stroke-width="0" cx="295.57" cy="-172.53" rx="224.31" ry="172.57"/>
<polygon fill="#1d71b8" stroke="transparent" points="139.57,-232.53 139.57,-292.53 452.57,-292.53 452.57,-232.53 139.57,-232.53"/>
<polygon fill="none" stroke="#29235c" points="139.57,-232.53 139.57,-292.53 452.57,-292.53 452.57,-232.53 139.57,-232.53"/>
<text text-anchor="start" x="159.16" y="-253.73" font-family="Helvetica,sans-Serif" font-weight="bold" font-size="32.00" fill="#ffffff"> &#160;&#160;&#160;&#160;&#160;&#160;UserTeam &#160;&#160;&#160;&#160;&#160;&#160;</text>
<polygon fill="#e7e2dd" stroke="transparent" points="139.57,-172.53 139.57,-232.53 452.57,-232.53 452.57,-172.53 139.57,-172.53"/>
<polygon fill="none" stroke="#29235c" points="139.57,-172.53 139.57,-232.53 452.57,-232.53 452.57,-172.53 139.57,-172.53"/>
<text text-anchor="start" x="150.57" y="-193.73" font-family="Helvetica,sans-Serif" font-weight="bold" font-size="32.00" fill="#29235c">id</text>
<text text-anchor="start" x="175.46" y="-193.73" font-family="Helvetica,sans-Serif" font-size="32.00" fill="#29235c"> &#160;&#160;&#160;</text>
<text text-anchor="start" x="299.35" y="-193.73" font-family="Helvetica,sans-Serif" font-style="italic" font-size="32.00" fill="#29235c">INTEGER</text>
<polygon fill="#e7e2dd" stroke="transparent" points="139.57,-112.53 139.57,-172.53 452.57,-172.53 452.57,-112.53 139.57,-112.53"/>
<polygon fill="none" stroke="#29235c" points="139.57,-112.53 139.57,-172.53 452.57,-172.53 452.57,-112.53 139.57,-112.53"/>
<text text-anchor="start" x="150.57" y="-132.73" font-family="Helvetica,sans-Serif" font-size="32.00" fill="#29235c">user_id &#160;&#160;&#160;</text>
<text text-anchor="start" x="299.35" y="-133.73" font-family="Helvetica,sans-Serif" font-style="italic" font-size="32.00" fill="#29235c">INTEGER</text>
<polygon fill="#e7e2dd" stroke="transparent" points="139.57,-52.53 139.57,-112.53 452.57,-112.53 452.57,-52.53 139.57,-52.53"/>
<polygon fill="none" stroke="#29235c" points="139.57,-52.53 139.57,-112.53 452.57,-112.53 452.57,-52.53 139.57,-52.53"/>
<text text-anchor="start" x="150.38" y="-72.73" font-family="Helvetica,sans-Serif" font-size="32.00" fill="#29235c">team_id &#160;&#160;&#160;</text>
<text text-anchor="start" x="299.46" y="-73.73" font-family="Helvetica,sans-Serif" font-style="italic" font-size="32.00" fill="#29235c">INTEGER</text>
<polygon fill="none" stroke="#29235c" stroke-width="2" points="138.07,-51.53 138.07,-293.53 453.07,-293.53 453.07,-51.53 138.07,-51.53"/>
</g>
<!-- UserTeam&#45;&gt;User -->
<!-- UserTeam&#45;&gt;User -->
<g id="edge22" class="edge">
<title>UserTeam:e&#45;&gt;User:w</title>
<path fill="none" stroke="#29235c" stroke-width="3" d="M453.57,-142.53C565.52,-142.53 554,-247.93 591.14,-353.53 627.48,-456.86 595.04,-1309.56 696.04,-1361.1"/>
<polygon fill="#29235c" stroke="#29235c" stroke-width="3" points="695.34,-1364.53 705.89,-1363.53 697.02,-1357.74 695.34,-1364.53"/>
<text text-anchor="middle" x="699.67" y="-1334.73" font-family="Helvetica,sans-Serif" font-size="32.00" fill="#29235c">*</text>
<text text-anchor="middle" x="444.68" y="-113.73" font-family="Helvetica,sans-Serif" font-size="32.00" fill="#29235c">1</text>
</g>
<!-- UserTeam&#45;&gt;Team -->
<!-- UserTeam&#45;&gt;Team -->
<g id="edge20" class="edge">
<title>UserTeam:e&#45;&gt;Team:w</title>
<path fill="none" stroke="#29235c" stroke-width="3" d="M453.57,-82.53C574.23,-82.53 581.39,-195.83 695.63,-202.25"/>
<polygon fill="#29235c" stroke="#29235c" stroke-width="3" points="695.8,-205.76 705.89,-202.53 695.99,-198.76 695.8,-205.76"/>
<text text-anchor="middle" x="712.11" y="-212.13" font-family="Helvetica,sans-Serif" font-size="32.00" fill="#29235c">*</text>
<text text-anchor="middle" x="444.68" y="-53.73" font-family="Helvetica,sans-Serif" font-size="32.00" fill="#29235c">1</text>
</g>
</g>
</svg>
